<?xml version="1.0" standalone="no"?><!DOCTYPE svg PUBLIC "-//W3C//DTD SVG 1.1//EN" "http://www.w3.org/Graphics/SVG/1.1/DTD/svg11.dtd"><svg t="1677379283832" class="icon" viewBox="0 0 1024 1024" version="1.1" xmlns="http://www.w3.org/2000/svg" p-id="8976" width="128" height="128" xmlns:xlink="http://www.w3.org/1999/xlink"><path d="M352 128C299.36 128 256 171.36 256 224c0 41.376 27.008 76.64 64 90.016v395.968c-36.992 13.376-64 48.64-64 90.016 0 52.64 43.36 96 96 96s96-43.36 96-96c0-40.64-26.112-75.008-62.016-88.992 4.64-39.36 19.904-58.752 44.032-75.008 28.736-19.36 72.864-30.88 120.96-42.016 48.16-11.104 99.776-22.624 143.04-52.992 37.984-26.624 66.72-70.24 72.96-130.976C804.544 396.864 832 361.6 832 320c0-52.64-43.36-96-96-96s-96 43.36-96 96c0 40.864 26.624 75.264 63.008 88.992-4.384 42.016-20.64 62.88-45.024 80-28.736 20.16-73.12 32-120.96 43.008-47.904 11.008-99.776 20.736-143.04 50.016-3.488 2.368-6.72 5.344-9.984 8V314.016c36.992-13.376 64-48.64 64-90.016 0-52.64-43.36-96-96-96z m0 64c18.016 0 32 14.016 32 32 0 18.016-14.016 32-32 32-18.016 0-32-14.016-32-32 0-18.016 14.016-32 32-32z m384 96c18.016 0 32 14.016 32 32 0 18.016-14.016 32-32 32-18.016 0-32-14.016-32-32 0-18.016 14.016-32 32-32zM352 768c18.016 0 32 14.016 32 32 0 18.016-14.016 32-32 32-18.016 0-32-14.016-32-32 0-18.016 14.016-32 32-32z" p-id="8977" fill="#515151"></path></svg>